<svg xmlns="http://www.w3.org/2000/svg" width="20" height="20" viewBox="0 0 20 20"><path d="M17.514,20h-15a2.41,2.41,0,0,1-1.768-.732A2.4,2.4,0,0,1,.015,17.5V2.5A2.41,2.41,0,0,1,.747.732,2.406,2.406,0,0,1,2.515,0h15a2.41,2.41,0,0,1,1.768.732A2.406,2.406,0,0,1,20.015,2.5v15a2.5,2.5,0,0,1-2.5,2.5Zm-2.5-13.125a.634.634,0,0,0-.625-.625H5.639a.634.634,0,0,0-.625.625v1.25a.634.634,0,0,0,.625.625h8.75a.634.634,0,0,0,.625-.625Zm0,5a.634.634,0,0,0-.625-.625H5.639a.634.634,0,0,0-.625.625v1.25a.634.634,0,0,0,.625.625h8.75a.634.634,0,0,0,.625-.625Z" transform="translate(-0.015 0)"/></svg>