<svg width="36" height="36" viewBox="0 0 36 36" fill="none" xmlns="http://www.w3.org/2000/svg">
<rect width="36" height="36" rx="18" fill="#F1F1F1"/>
<path d="M16.3376 22.1933C16.5976 21.9333 16.5976 21.5133 16.3376 21.2533L13.7509 18.6666L23.8642 18.6666C24.2309 18.6666 24.5309 18.3666 24.5309 18C24.5309 17.6333 24.2309 17.3333 23.8642 17.3333L13.7442 17.3333L16.3309 14.7466C16.5909 14.4866 16.5909 14.0666 16.3309 13.8066C16.0709 13.5466 15.6509 13.5466 15.3909 13.8066L11.6642 17.5333C11.4042 17.7933 11.4042 18.2133 11.6642 18.4733L15.3976 22.1933C15.6509 22.4533 16.0776 22.4533 16.3376 22.1933Z" fill="black"/>
</svg>
