<svg id="Icon_ContactManager" xmlns="http://www.w3.org/2000/svg" width="20" height="14.999" viewBox="0 0 20 14.999"><path id="address-card" d="M10,9.8a6.941,6.941,0,0,0-.088-1.147,4.618,4.618,0,0,0-.288-1.006,1.716,1.716,0,0,0-.591-.762A1.593,1.593,0,0,0,8.086,6.6q-.058.039-.293.176t-.366.21q-.132.073-.347.171a2.072,2.072,0,0,1-.42.142,1.937,1.937,0,0,1-.82,0,2.072,2.072,0,0,1-.42-.142q-.216-.1-.347-.171t-.366-.21q-.235-.137-.293-.176a1.589,1.589,0,0,0-.947.278,1.715,1.715,0,0,0-.591.762,4.648,4.648,0,0,0-.288,1.006A6.868,6.868,0,0,0,2.5,9.8a1.532,1.532,0,0,0,.361,1.04,1.13,1.13,0,0,0,.889.415h5a1.134,1.134,0,0,0,.889-.415A1.524,1.524,0,0,0,10,9.8ZM8.467,4.717a2.136,2.136,0,0,0-.649-1.567A2.136,2.136,0,0,0,6.25,2.5a2.136,2.136,0,0,0-1.567.649,2.136,2.136,0,0,0-.649,1.567,2.136,2.136,0,0,0,.649,1.567,2.136,2.136,0,0,0,1.567.649,2.136,2.136,0,0,0,1.567-.649A2.136,2.136,0,0,0,8.467,4.717ZM17.5,9.687V9.062a.3.3,0,0,0-.312-.312H11.563a.3.3,0,0,0-.312.312v.625a.3.3,0,0,0,.312.312h5.625a.3.3,0,0,0,.312-.312Zm0-2.539V6.6a.338.338,0,0,0-.1-.249.342.342,0,0,0-.249-.1H11.6a.338.338,0,0,0-.249.1.342.342,0,0,0-.1.249v.547a.338.338,0,0,0,.1.249.342.342,0,0,0,.249.1h5.547a.338.338,0,0,0,.249-.1.342.342,0,0,0,.1-.249Zm0-2.461V4.062a.3.3,0,0,0-.312-.312H11.563a.3.3,0,0,0-.312.312v.625A.3.3,0,0,0,11.563,5h5.625a.3.3,0,0,0,.312-.312ZM20,1.562V13.437A1.567,1.567,0,0,1,18.438,15H15v-.938a.3.3,0,0,0-.312-.312h-.625a.3.3,0,0,0-.312.312V15H6.25v-.938a.3.3,0,0,0-.312-.312H5.313A.3.3,0,0,0,5,14.062V15H1.563a1.5,1.5,0,0,1-1.1-.459A1.506,1.506,0,0,1,0,13.438V1.563A1.5,1.5,0,0,1,.459.459,1.5,1.5,0,0,1,1.563,0H18.438a1.5,1.5,0,0,1,1.1.459A1.5,1.5,0,0,1,20,1.562Z" ></path></svg>