<svg xmlns="http://www.w3.org/2000/svg" width="22" height="22" viewBox="0 0 22 22"><path d="M13.75,8.25V6.875h1.375L16.5,8.25l4.125-4.125H22V5.5L16.5,11Zm-2.062,5.5H10.313a.7.7,0,0,1-.687-.687V4.813a.7.7,0,0,1,.688-.687h1.375a.7.7,0,0,1,.688.687v8.25a.7.7,0,0,1-.687.688Zm.688,3.438a.7.7,0,0,1-.687.687H10.313a.7.7,0,0,1-.687-.687V15.813a.7.7,0,0,1,.688-.687h1.375a.7.7,0,0,1,.688.688ZM11,2.75A8.08,8.08,0,0,0,6.864,3.857,8.187,8.187,0,0,0,3.856,6.865a8.283,8.283,0,0,0,0,8.271,8.187,8.187,0,0,0,3.008,3.008,8.283,8.283,0,0,0,8.271,0,8.187,8.187,0,0,0,3.008-3.008A8.08,8.08,0,0,0,19.25,11q0-.129-.021-.516L21.592,8.1a10.762,10.762,0,0,1-.462,7.176,10.763,10.763,0,0,1-5.854,5.854,10.937,10.937,0,0,1-8.551,0A10.763,10.763,0,0,1,.87,15.275a10.937,10.937,0,0,1,0-8.551A10.763,10.763,0,0,1,6.725.87,10.923,10.923,0,0,1,19.035,3.5L17.1,5.457A8.392,8.392,0,0,0,14.362,3.47,8.01,8.01,0,0,0,11,2.75Z"/></svg>