<svg xmlns="http://www.w3.org/2000/svg" width="12" height="10.5" viewBox="0 0 12 10.5"><path d="M11.5.75a.469.469,0,0,1,.35.15.469.469,0,0,1,.15.35v9.5a.513.513,0,0,1-.5.5h-8a.513.513,0,0,1-.5-.5V9H.5a.469.469,0,0,1-.35-.15A.469.469,0,0,1,0,8.5v-5a.469.469,0,0,1,.15-.35A.459.459,0,0,1,.5,3H3V1.25A.469.469,0,0,1,3.15.9.469.469,0,0,1,3.5.75ZM3,6.64l.71,1.33H4.78L3.59,6.035l1.17-1.9H3.73l-.65,1.2-.025.04-.02.045-.32-.64-.33-.645H1.3L2.43,6.045,1.19,7.97H2.27ZM7.125,10.5V9H3.75v1.5Zm0-2.25V6.375H6V8.25Zm0-2.625V3.75H6V5.625ZM7.125,3V1.5H3.75V3Zm4.125,7.5V9H7.875v1.5Zm0-2.25V6.375H7.875V8.25Zm0-2.625V3.75H7.875V5.625ZM11.25,3V1.5H7.875V3Z" transform="translate(0 -0.75)"/></svg>