<svg xmlns="http://www.w3.org/2000/svg" width="18" height="18" viewBox="0 0 18 18">
  <path id="Path_93" data-name="Path 93" d="M618.553,13.278a7.054,7.054,0,0,0,.058-.878,5.407,5.407,0,0,0-.069-.877l1.956-1.485a.458.458,0,0,0,.115-.574l-1.851-3.116a.478.478,0,0,0-.568-.2l-2.3.9a6.82,6.82,0,0,0-1.562-.878l-.347-2.385a.459.459,0,0,0-.464-.382h-3.7a.446.446,0,0,0-.451.382l-.347,2.385a7,7,0,0,0-1.563.878l-2.3-.9a.463.463,0,0,0-.567.2l-1.851,3.116a.429.429,0,0,0,.115.574l1.956,1.485a5.216,5.216,0,0,0-.012,1.755l-1.956,1.485a.458.458,0,0,0-.116.574l1.851,3.116a.478.478,0,0,0,.568.2l2.3-.9a6.864,6.864,0,0,0,1.562.878l.348,2.385a.468.468,0,0,0,.463.383h3.7a.437.437,0,0,0,.451-.383l.348-2.385a7.014,7.014,0,0,0,1.562-.878l2.3.9a.463.463,0,0,0,.567-.2l1.851-3.116a.429.429,0,0,0-.116-.574Zm-6.884,2.5A3.376,3.376,0,1,1,615.14,12.4,3.435,3.435,0,0,1,611.669,15.775Z" transform="translate(-602.668 -3.4)"/>
</svg>
