<svg xmlns="http://www.w3.org/2000/svg" width="20" height="20" viewBox="0 0 20 20"><path d="M10,0A10,10,0,1,0,20,10,10,10,0,0,0,10,0Zm1.656,5.668A.667.667,0,0,1,12.323,5h2a.667.667,0,0,1,.667.667h0v2a.667.667,0,1,1-1.333,0V7.513l-2.633,2.633a.666.666,0,0,1-.943,0l-.236-.236a.666.666,0,0,1,0-.943l2.633-2.633h-.155a.667.667,0,0,1-.667-.667h0ZM14.176,15H5.823a.834.834,0,0,1-.833-.833V5.833A.834.834,0,0,1,5.823,5H9.177a.833.833,0,0,1,0,1.667H6.657v6.667h6.667v-2.5A.834.834,0,0,1,14.157,10h0a.834.834,0,0,1,.833.833v3.155A.833.833,0,0,1,14.177,15Z"/></svg>