<svg xmlns="http://www.w3.org/2000/svg" width="12" height="11.156" viewBox="0 0 12 11.156"><path d="M9.359,1.266V3.127H7.64A2.391,2.391,0,0,0,5.992,3.9,20.567,20.567,0,0,0,4.077,6.4c-.871,1.244-1.356,2-1.658,2.333s-.254.309-.694.309H0V10.52H1.725a2.416,2.416,0,0,0,1.8-.8c.47-.525.913-1.252,1.767-2.472A21.113,21.113,0,0,1,7.042,4.94c.351-.355.366-.335.6-.335h1.72V6.546L12,3.907ZM0,3.127V4.605H1.725c.44,0,.391-.03.694.308.195.217.515.678.915,1.259l.137-.2c.218-.311.416-.592.6-.848.064-.089.117-.159.177-.243a9.856,9.856,0,0,0-.726-.958,2.415,2.415,0,0,0-1.8-.8H0ZM9.359,7.141v1.9H7.64c-.23,0-.246.019-.6-.336a12.324,12.324,0,0,1-1-1.248l-.151.213c-.306.437-.516.752-.738,1.078a9.976,9.976,0,0,0,.836,1,2.392,2.392,0,0,0,1.647.774h1.72v1.9L12,9.782Z" transform="translate(0 -1.266)"/></svg>