<svg xmlns="http://www.w3.org/2000/svg" width="18" height="18" viewBox="0 0 18 18">
  <path id="Path_120" data-name="Path 120" d="M17.364,3.455H9.182L8.364,1H2.636A1.641,1.641,0,0,0,1,2.636V14.909a1.641,1.641,0,0,0,1.636,1.636H9.182L10,19h7.364A1.641,1.641,0,0,0,19,17.364V5.091A1.641,1.641,0,0,0,17.364,3.455ZM5.909,13.273a4.091,4.091,0,0,1,0-8.182A3.967,3.967,0,0,1,8.65,6.155L7.57,7.194a2.36,2.36,0,0,0-1.661-.638,2.627,2.627,0,0,0,0,5.253A2.238,2.238,0,0,0,8.3,9.836H5.909v-1.4H9.738a3.539,3.539,0,0,1,.1.835A3.773,3.773,0,0,1,5.909,13.273Zm5.048-4.435h3.027a8.2,8.2,0,0,1-1.677,2.839,9.2,9.2,0,0,1-.7-.9l-.646-1.939Zm6.815,8.116a.821.821,0,0,1-.818.818H11.636l1.636-2.045-.851-2.536,2.536,2.536.753-.753-2.7-2.659.016-.016a9.134,9.134,0,0,0,1.964-3.453h1.555V7.783H12.839V6.727H11.784V7.783H10.605l-1.047-3.1h7.4a.821.821,0,0,1,.818.818Z" transform="translate(-1 -1)"/>
</svg>
