<svg xmlns="http://www.w3.org/2000/svg" width="18" height="11.455" viewBox="0 0 18 11.455">
  <path id="Path_12" data-name="Path 12" d="M42.023,74.659A2.455,2.455,0,1,0,39.568,72.2,2.444,2.444,0,0,0,42.023,74.659Zm-6.545,0A2.455,2.455,0,1,0,33.023,72.2,2.444,2.444,0,0,0,35.477,74.659Zm0,1.636c-1.906,0-5.727.957-5.727,2.864V81.2H41.2V79.159C41.2,77.253,37.384,76.3,35.477,76.3Zm6.545,0c-.237,0-.507.016-.794.041a3.453,3.453,0,0,1,1.612,2.823V81.2H47.75V79.159C47.75,77.253,43.929,76.3,42.023,76.3Z" transform="translate(-29.75 -69.75)"/>
</svg>
